<?xml version="1.0"?>
<mxfile host="Electron" modified="2022-06-09T17:41:01.143Z" agent="5.0 (X11; Linux x86_64) AppleWebKit/537.36 (KHTML, like Gecko) draw.io/18.1.3 Chrome/100.0.4896.143 Electron/18.2.3 Safari/537.36" etag="1kwHuTuFAYJqPN3NAgU3" version="18.1.3">
  <diagram id="gPBuwyTeaHsb2Q_tDXRm" name="Page-1">
    <mxGraphModel dx="2" dy="1" grid="1" gridSize="10" guides="1" tooltips="1" connect="1" arrows="1" fold="1" page="1" pageScale="1" pageWidth="850" pageHeight="1100" math="0" shadow="0">
      <root>
        <mxCell id="0"/>
        <mxCell id="1" parent="0"/>
        <mxCell id="yboL8vMdmqR3Tv0oU-SV-1" value="&#x5BBF;&#x4E3B;&#x6307;&#x4EE4;&#x96C6;&lt;br&gt;host ISA" style="rounded=0;whiteSpace=wrap;html=1;fillColor=#dae8fc;strokeColor=#6c8ebf;sketch=1;" parent="1" vertex="1">
          <mxGeometry x="80" y="40" width="80" height="40" as="geometry"/>
        </mxCell>
        <mxCell id="yboL8vMdmqR3Tv0oU-SV-2" value="&#x5BA2;&#x6237;&#x6307;&#x4EE4;&#x96C6;&lt;br&gt;guest ISA" style="rounded=0;whiteSpace=wrap;html=1;fillColor=#f8cecc;strokeColor=#b85450;sketch=1;" parent="1" vertex="1">
          <mxGeometry x="210" y="40" width="80" height="40" as="geometry"/>
        </mxCell>
        <mxCell id="yboL8vMdmqR3Tv0oU-SV-5" value="&#x5FAE;&#x7801;&lt;br&gt;micro operations (uops)" style="rounded=0;whiteSpace=wrap;html=1;fillColor=#d5e8d4;strokeColor=#82b366;sketch=1;" parent="1" vertex="1">
          <mxGeometry x="110" y="160" width="160" height="40" as="geometry"/>
        </mxCell>
        <mxCell id="yboL8vMdmqR3Tv0oU-SV-6" value="" style="endArrow=classic;html=1;rounded=0;fillColor=#d5e8d4;strokeColor=#82b366;sketch=1;" parent="1" source="yboL8vMdmqR3Tv0oU-SV-1" target="yboL8vMdmqR3Tv0oU-SV-10" edge="1">
          <mxGeometry width="50" height="50" relative="1" as="geometry">
            <mxPoint x="10" y="180" as="sourcePoint"/>
            <mxPoint x="120" y="100" as="targetPoint"/>
          </mxGeometry>
        </mxCell>
        <mxCell id="yboL8vMdmqR3Tv0oU-SV-7" value="" style="endArrow=classic;html=1;rounded=0;fillColor=#d5e8d4;strokeColor=#82b366;sketch=1;" parent="1" source="yboL8vMdmqR3Tv0oU-SV-2" target="yboL8vMdmqR3Tv0oU-SV-11" edge="1">
          <mxGeometry width="50" height="50" relative="1" as="geometry">
            <mxPoint x="130" y="90" as="sourcePoint"/>
            <mxPoint x="250" y="100" as="targetPoint"/>
          </mxGeometry>
        </mxCell>
        <mxCell id="yboL8vMdmqR3Tv0oU-SV-8" value="" style="endArrow=classic;html=1;rounded=0;fillColor=#d5e8d4;strokeColor=#82b366;sketch=1;" parent="1" source="yboL8vMdmqR3Tv0oU-SV-11" target="yboL8vMdmqR3Tv0oU-SV-5" edge="1">
          <mxGeometry width="50" height="50" relative="1" as="geometry">
            <mxPoint x="230" y="140" as="sourcePoint"/>
            <mxPoint x="260" y="110" as="targetPoint"/>
          </mxGeometry>
        </mxCell>
        <mxCell id="yboL8vMdmqR3Tv0oU-SV-9" value="" style="endArrow=classic;html=1;rounded=0;fillColor=#d5e8d4;strokeColor=#82b366;sketch=1;" parent="1" source="yboL8vMdmqR3Tv0oU-SV-10" target="yboL8vMdmqR3Tv0oU-SV-5" edge="1">
          <mxGeometry width="50" height="50" relative="1" as="geometry">
            <mxPoint x="143.33333333333337" y="140" as="sourcePoint"/>
            <mxPoint x="215" y="190" as="targetPoint"/>
          </mxGeometry>
        </mxCell>
        <mxCell id="yboL8vMdmqR3Tv0oU-SV-10" value="&lt;span style=&quot;&quot;&gt;&#x786C;&#x4EF6;&#x89E3;&#x7801;&#x5668;&lt;/span&gt;&lt;br style=&quot;&quot;&gt;&lt;span style=&quot;&quot;&gt;HW decoder&lt;/span&gt;" style="rounded=1;whiteSpace=wrap;html=1;fillColor=#d5e8d4;strokeColor=#82b366;sketch=1;" parent="1" vertex="1">
          <mxGeometry x="80" y="100" width="80" height="40" as="geometry"/>
        </mxCell>
        <mxCell id="yboL8vMdmqR3Tv0oU-SV-11" value="&lt;span style=&quot;&quot;&gt;&#x53EF;&#x7F16;&#x7A0B;&#x89E3;&#x7801;&#x5668;&lt;/span&gt;&lt;br style=&quot;&quot;&gt;&lt;span style=&quot;&quot;&gt;programmable decoder&lt;/span&gt;" style="rounded=1;whiteSpace=wrap;html=1;fillColor=#d5e8d4;strokeColor=#82b366;sketch=1;" parent="1" vertex="1">
          <mxGeometry x="180" y="100" width="140" height="40" as="geometry"/>
        </mxCell>
      </root>
    </mxGraphModel>
  </diagram>
</mxfile>
